<svg width="400" height="300" viewBox="0 0 400 300" xmlns="http://www.w3.org/2000/svg" preserveAspectRatio="none">
  <path d="M 0,5 L 3,2 L 7,4 L 12,1 L 18,3 L 23,1 L 29,4 L 35,2 L 41,5 L 47,2 L 53,4 L 59,1 L 65,3 L 71,2 L 77,5 L 83,3 L 89,4 L 95,1 L 101,3 L 107,2 L 113,4 L 119,1 L 125,3 L 131,2 L 137,5 L 143,3 L 149,4 L 155,2 L 161,4 L 167,1 L 173,3 L 179,2 L 185,5 L 191,3 L 197,4 L 203,1 L 209,3 L 215,2 L 221,4 L 227,2 L 233,5 L 239,3 L 245,4 L 251,1 L 257,3 L 263,2 L 269,5 L 275,3 L 281,4 L 287,2 L 293,4 L 299,1 L 305,3 L 311,2 L 317,5 L 323,3 L 329,4 L 335,2 L 341,4 L 347,1 L 353,3 L 359,2 L 365,5 L 371,3 L 377,4 L 383,2 L 389,4 L 395,1 L 400,3 L 400,297 L 395,299 L 389,296 L 383,298 L 377,296 L 371,297 L 365,295 L 359,298 L 353,297 L 347,299 L 341,296 L 335,298 L 329,296 L 323,297 L 317,295 L 311,298 L 305,297 L 299,299 L 293,296 L 287,298 L 281,296 L 275,297 L 269,295 L 263,298 L 257,297 L 251,299 L 245,296 L 239,297 L 233,295 L 227,298 L 221,296 L 215,298 L 209,297 L 203,299 L 197,296 L 191,297 L 185,295 L 179,298 L 173,297 L 167,299 L 161,296 L 155,298 L 149,296 L 143,297 L 137,295 L 131,298 L 125,297 L 119,299 L 113,296 L 107,298 L 101,297 L 95,299 L 89,296 L 83,297 L 77,295 L 71,298 L 65,297 L 59,299 L 53,296 L 47,298 L 41,295 L 35,298 L 29,296 L 23,299 L 18,297 L 12,299 L 7,296 L 3,298 L 0,295 Z" fill="white"/>
</svg>
